<svg xmlns="http://www.w3.org/2000/svg" viewBox="0 0 1200 630" fill="none">
  <rect width="1200" height="630" fill="#0B0B0B"/>
  <!-- Grid pattern background -->
  <g opacity="0.06">
    <line x1="0" y1="0" x2="0" y2="630" stroke="#3B82F6" stroke-width="1"/>
    <line x1="120" y1="0" x2="120" y2="630" stroke="#3B82F6" stroke-width="1"/>
    <line x1="240" y1="0" x2="240" y2="630" stroke="#3B82F6" stroke-width="1"/>
    <line x1="360" y1="0" x2="360" y2="630" stroke="#3B82F6" stroke-width="1"/>
    <line x1="480" y1="0" x2="480" y2="630" stroke="#3B82F6" stroke-width="1"/>
    <line x1="600" y1="0" x2="600" y2="630" stroke="#3B82F6" stroke-width="1"/>
    <line x1="720" y1="0" x2="720" y2="630" stroke="#3B82F6" stroke-width="1"/>
    <line x1="840" y1="0" x2="840" y2="630" stroke="#3B82F6" stroke-width="1"/>
    <line x1="960" y1="0" x2="960" y2="630" stroke="#3B82F6" stroke-width="1"/>
    <line x1="1080" y1="0" x2="1080" y2="630" stroke="#3B82F6" stroke-width="1"/>
    <line x1="1200" y1="0" x2="1200" y2="630" stroke="#3B82F6" stroke-width="1"/>
    <line x1="0" y1="63" x2="1200" y2="63" stroke="#3B82F6" stroke-width="1"/>
    <line x1="0" y1="126" x2="1200" y2="126" stroke="#3B82F6" stroke-width="1"/>
    <line x1="0" y1="189" x2="1200" y2="189" stroke="#3B82F6" stroke-width="1"/>
    <line x1="0" y1="252" x2="1200" y2="252" stroke="#3B82F6" stroke-width="1"/>
    <line x1="0" y1="315" x2="1200" y2="315" stroke="#3B82F6" stroke-width="1"/>
    <line x1="0" y1="378" x2="1200" y2="378" stroke="#3B82F6" stroke-width="1"/>
    <line x1="0" y1="441" x2="1200" y2="441" stroke="#3B82F6" stroke-width="1"/>
    <line x1="0" y1="504" x2="1200" y2="504" stroke="#3B82F6" stroke-width="1"/>
    <line x1="0" y1="567" x2="1200" y2="567" stroke="#3B82F6" stroke-width="1"/>
  </g>
  <!-- Delta mark -->
  <g transform="translate(420, 100)">
    <path d="M180 0L360 340H0L180 0Z" stroke="#3B82F6" stroke-width="16" fill="none" stroke-linejoin="bevel"/>
    <line x1="40" y1="270" x2="320" y2="270" stroke="#3B82F6" stroke-width="5" opacity="0.5"/>
    <line x1="80" y1="200" x2="280" y2="200" stroke="#3B82F6" stroke-width="5" opacity="0.35"/>
    <rect x="170" y="-12" width="20" height="20" fill="#3B82F6"/>
  </g>
  <!-- Text -->
  <text x="600" y="530" text-anchor="middle" font-family="Inter, -apple-system, system-ui, sans-serif" font-weight="700" font-size="48" letter-spacing="8" fill="#ffffff">GNARLY GRID</text>
  <text x="600" y="580" text-anchor="middle" font-family="Inter, -apple-system, system-ui, sans-serif" font-weight="300" font-size="20" letter-spacing="4" fill="#666666">MOTORSPORT INTELLIGENCE</text>
</svg>
